<?xml version="1.0" standalone="no"?>
<!DOCTYPE svg PUBLIC "-//W3C//DTD SVG 20010904//EN"
 "http://www.w3.org/TR/2001/REC-SVG-20010904/DTD/svg10.dtd">
<svg version="1.0" xmlns="http://www.w3.org/2000/svg"
 width="728.000000pt" height="574.000000pt" viewBox="0 0 728.000000 574.000000"
 preserveAspectRatio="xMidYMid meet">

<g transform="translate(0.000000,574.000000) scale(0.100000,-0.100000)"
fill="#000000" stroke="none">
<path d="M3320 5737 c-3 -3 -34 -8 -70 -11 -226 -22 -405 -68 -680 -178 -171
-68 -269 -113 -340 -157 -19 -11 -42 -24 -50 -28 -8 -4 -23 -14 -32 -22 -9 -9
-34 -25 -55 -36 -80 -42 -161 -102 -332 -243 -375 -311 -694 -787 -865 -1293
-47 -139 -99 -368 -87 -382 4 -4 195 -6 426 -5 l418 3 23 79 c12 44 27 89 33
100 6 12 19 44 30 73 39 100 174 359 201 383 3 3 40 50 82 105 118 155 307
333 468 440 25 16 47 32 50 35 13 15 117 71 225 122 285 133 550 191 877 189
375 -1 715 -98 1053 -299 186 -111 382 -283 526 -462 138 -172 284 -443 350
-650 19 -58 38 -108 44 -112 5 -4 197 -7 425 -5 l415 2 3 21 c7 50 -109 443
-178 604 -74 172 -238 457 -323 563 -24 28 -53 68 -67 87 -56 81 -264 301
-356 375 -32 26 -80 66 -106 89 -89 78 -191 148 -373 254 -119 69 -169 95
-214 112 -25 10 -98 39 -161 64 -190 78 -371 131 -525 155 -38 6 -86 14 -105
17 -44 7 -723 18 -730 11z m180 -292 l0 -35 105 0 c96 0 111 3 172 30 57 26
78 30 133 28 l65 -3 -127 -63 -127 -62 -114 0 c-63 0 -129 3 -146 6 -31 6 -31
7 -31 70 l0 64 35 0 c33 0 35 -2 35 -35z m948 -109 c-13 -10 -92 -68 -176
-128 -148 -106 -154 -109 -192 -103 -22 4 -40 10 -40 14 0 4 58 50 130 102 71
51 130 96 130 99 0 3 -33 14 -72 24 -40 10 -95 25 -123 33 l-49 15 33 27 33
27 174 -46 c175 -45 175 -45 152 -64z m-1360 -78 c70 -68 129 -127 130 -133 2
-5 -10 -14 -27 -19 -29 -8 -36 -4 -136 89 -58 54 -107 96 -109 94 -2 -2 -13
-58 -26 -124 -30 -157 -31 -159 -76 -173 -48 -15 -73 0 -121 71 -36 54 -49
122 -34 186 10 45 23 61 52 61 14 0 16 -9 12 -64 -3 -38 0 -79 7 -102 14 -42
46 -94 59 -94 4 0 20 70 36 155 27 146 30 155 54 164 14 5 32 10 39 10 6 1 70
-54 140 -121z m754 -58 l123 -70 -58 0 c-46 0 -72 7 -127 35 -64 32 -81 36
-179 42 l-109 6 -4 -29 c-2 -25 -8 -29 -35 -32 l-33 -3 0 67 0 67 149 -7 150
-7 123 -69z m960 -3 c7 -12 -21 -77 -34 -77 -5 0 -22 7 -39 15 -29 16 -30 15
-102 -41 -80 -62 -87 -71 -60 -81 10 -3 47 -19 82 -35 l64 -28 -23 -25 c-13
-14 -28 -25 -33 -25 -15 0 -247 104 -247 111 0 3 68 58 151 122 l151 116 42
-21 c22 -11 44 -25 48 -31z m-2276 -65 c164 -113 163 -112 164 -162 0 -45 0
-45 -63 -81 -34 -20 -106 -62 -160 -93 -69 -41 -104 -56 -120 -52 -47 11 -55
27 -71 136 -28 195 -35 171 74 239 52 32 98 59 101 60 3 1 37 -20 75 -47z
m2404 -11 c23 -19 24 -20 7 -39 -9 -10 -17 -23 -17 -29 0 -6 36 -38 81 -71 72
-54 89 -62 152 -72 58 -10 82 -20 125 -51 28 -22 52 -41 52 -43 0 -1 -64 8
-142 21 l-142 24 -113 85 c-78 58 -111 89 -106 98 19 30 68 96 73 96 3 0 16
-9 30 -19z m-30 -231 c65 -50 122 -101 126 -113 4 -12 29 -67 56 -121 26 -55
47 -100 46 -102 -2 -1 -23 12 -47 31 -29 21 -57 56 -82 101 -29 56 -52 81
-115 131 -44 34 -84 62 -91 62 -6 1 -19 -9 -27 -20 -14 -21 -16 -21 -40 -5
-15 9 -26 19 -26 22 0 6 73 103 78 104 2 0 56 -41 122 -90z m-2724 -40 c38
-47 84 -104 103 -128 l34 -44 -24 -24 -25 -24 -79 99 c-44 54 -81 96 -82 93
-1 -4 -4 -24 -8 -44 -6 -36 -8 -38 -42 -38 l-36 0 7 73 c6 65 9 75 39 99 17
15 35 26 38 25 4 -1 37 -40 75 -87z m3372 -282 l111 -133 -217 -3 -217 -3 -22
28 c-13 15 -23 30 -23 33 0 3 33 6 72 8 40 2 75 5 77 7 2 3 -10 20 -28 40 -17
20 -31 40 -31 45 0 6 17 10 38 10 34 0 43 -6 78 -50 36 -45 42 -49 83 -50 41
0 43 1 30 18 -8 9 -39 46 -70 82 -91 109 -88 100 -37 100 l45 0 111 -132z
m-3570 33 c90 -21 166 -42 169 -45 11 -10 -29 -46 -51 -46 -12 0 -77 13 -146
29 -69 15 -126 27 -127 27 -1 -1 18 -59 42 -130 25 -70 45 -133 45 -139 0 -7
-13 -26 -30 -44 -28 -29 -31 -31 -72 -21 -67 14 -126 54 -158 106 -40 63 -48
107 -25 132 25 28 30 25 43 -18 15 -51 54 -101 104 -134 48 -33 74 -37 63 -10
-4 9 -27 76 -52 149 l-45 131 22 32 c14 20 28 29 38 26 10 -3 90 -23 180 -45z
m3751 -268 c7 -16 9 -29 3 -31 -5 -1 -18 -9 -28 -17 -18 -13 -17 -17 25 -102
38 -77 51 -94 106 -135 45 -34 72 -63 94 -104 17 -32 30 -58 28 -60 -1 -1 -54
35 -117 80 l-115 81 -67 130 -66 130 51 27 c65 34 71 34 86 1z m-4062 -100
c73 -43 133 -84 133 -92 0 -30 -209 -381 -227 -381 -15 0 -283 151 -283 160 0
3 9 16 19 29 l18 23 107 -61 c59 -34 111 -61 116 -61 8 0 160 258 160 272 0 7
-160 101 -164 96 -2 -2 -15 -24 -30 -50 -26 -45 -26 -47 -11 -84 15 -36 15
-41 -2 -71 -10 -18 -20 -33 -23 -33 -6 0 -60 140 -60 154 0 17 95 176 104 176
6 0 70 -35 143 -77z m3935 -96 c42 -83 66 -141 64 -157 -2 -14 -4 -74 -5 -135
l-2 -110 -25 49 c-19 35 -27 69 -30 125 -4 65 -12 91 -52 174 -47 99 -49 101
-93 83 -21 -9 -46 43 -27 56 15 11 91 47 98 48 3 0 35 -60 72 -133z"/>
<path d="M2391 5060 c-24 -16 -48 -31 -53 -32 -11 -4 12 -208 23 -208 8 0 259
149 259 154 0 8 -160 116 -171 115 -8 0 -34 -14 -58 -29z"/>
<path d="M3444 4540 c-374 -43 -728 -215 -992 -483 -242 -246 -388 -515 -457
-842 -36 -173 -43 -439 -15 -588 6 -29 15 -77 21 -107 34 -176 154 -445 273
-610 75 -103 212 -251 295 -318 25 -20 48 -40 51 -43 8 -9 91 -64 163 -107
368 -223 857 -291 1280 -178 128 35 343 125 416 176 14 10 58 38 97 64 334
216 602 616 692 1031 23 108 26 142 26 340 1 194 -2 234 -23 335 -137 664
-651 1174 -1323 1310 -116 24 -383 34 -504 20z m498 -126 c134 -28 203 -49
320 -100 429 -188 758 -567 879 -1012 42 -157 52 -232 53 -417 0 -210 -9 -275
-67 -480 -79 -275 -301 -587 -552 -775 -195 -146 -378 -229 -620 -282 -126
-28 -157 -31 -320 -31 -161 -1 -194 2 -310 27 -550 119 -961 470 -1164 995
-35 90 -79 290 -92 419 -20 205 13 439 96 667 40 112 131 285 188 360 104 137
170 209 269 291 247 206 535 329 853 364 128 14 329 3 467 -26z"/>
<path d="M3395 4283 c-169 -36 -252 -63 -385 -126 -84 -40 -214 -119 -226
-139 -4 -5 17 -34 46 -63 l53 -54 58 40 c32 22 67 43 76 47 10 4 38 18 63 32
75 40 188 78 298 100 l62 13 0 78 c0 82 0 82 -45 72z"/>
<path d="M3825 4280 c-2 -3 -2 -15 0 -26 2 -10 4 -42 4 -70 l1 -50 48 -12 c26
-6 63 -14 82 -18 71 -13 311 -118 344 -149 6 -6 26 -20 45 -32 l35 -21 53 51
c29 28 53 54 53 57 0 7 -111 82 -190 128 -55 32 -207 92 -284 112 -90 24 -185
39 -191 30z"/>
<path d="M3530 3671 l0 -279 -32 -7 c-18 -4 -61 -21 -96 -37 -35 -16 -65 -28
-67 -26 -2 1 -89 87 -193 191 -104 103 -193 187 -198 187 -5 0 -39 -29 -74
-65 l-65 -65 193 -193 c105 -106 192 -197 192 -204 0 -6 -11 -33 -24 -60 -13
-26 -30 -67 -37 -90 l-12 -43 -279 0 -278 0 0 -100 0 -100 278 0 279 0 12 -42
c7 -24 24 -65 37 -91 13 -27 24 -53 24 -59 0 -5 -84 -95 -187 -200 -104 -104
-190 -192 -192 -194 -7 -6 121 -134 134 -134 5 0 67 57 137 128 70 70 156 156
191 191 l65 63 65 -31 c36 -17 79 -34 96 -37 l31 -6 0 -279 0 -279 100 0 100
0 2 277 3 278 61 20 c33 11 76 30 96 41 l35 22 194 -194 c107 -107 196 -194
200 -194 3 0 36 30 73 67 l67 67 -196 196 -197 197 26 50 c15 27 32 69 39 94
l13 44 277 3 277 2 0 100 0 100 -277 2 -277 3 -13 44 c-7 25 -24 67 -39 94
l-26 50 196 196 196 196 -70 70 -70 70 -198 -196 -197 -196 -50 28 c-27 15
-71 33 -97 40 l-48 11 0 279 0 279 -100 0 -100 0 0 -279z"/>
<path d="M2448 3667 c-116 -180 -188 -360 -217 -546 l-8 -51 78 0 c45 0 80 4
80 10 1 6 2 13 3 18 1 4 6 27 10 52 22 121 108 322 187 437 l30 43 -55 55
c-30 30 -56 55 -58 55 -2 0 -24 -33 -50 -73z"/>
<path d="M4712 3687 c-29 -29 -52 -56 -52 -60 0 -5 11 -23 24 -40 73 -96 148
-272 180 -419 l21 -98 77 0 c93 0 91 -6 53 145 -28 111 -73 234 -113 310 -23
43 -131 215 -136 215 -1 0 -25 -24 -54 -53z"/>
<path d="M2230 2661 c0 -85 71 -304 141 -440 47 -89 118 -201 129 -201 3 0 29
24 58 54 l53 53 -42 63 c-76 114 -149 293 -180 443 l-12 57 -74 0 -73 0 0 -29z"/>
<path d="M4886 2682 c-2 -4 -9 -36 -16 -71 -23 -127 -89 -287 -172 -414 -21
-32 -38 -62 -38 -66 0 -3 24 -30 53 -59 l53 -53 41 58 c89 128 166 300 208
467 38 150 40 146 -49 146 -41 0 -77 -3 -80 -8z"/>
<path d="M2827 1802 l-56 -57 77 -51 c165 -109 375 -192 550 -218 l42 -6 0 79
0 78 -62 13 c-159 31 -308 93 -439 181 l-56 38 -56 -57z"/>
<path d="M4327 1820 c-115 -73 -337 -170 -389 -170 -13 0 -43 -6 -67 -14 l-44
-13 0 -74 0 -74 37 3 c52 4 209 45 276 72 121 48 350 178 350 199 0 11 -94
101 -106 101 -5 0 -31 -13 -57 -30z"/>
<path d="M810 2343 c0 -45 47 -239 86 -358 206 -621 617 -1158 1158 -1513 312
-205 651 -345 1011 -417 221 -44 288 -50 575 -49 310 0 441 15 691 78 703 177
1314 614 1714 1224 113 173 244 444 308 637 51 154 107 369 107 409 0 14 -46
16 -430 16 -394 0 -430 -1 -430 -17 0 -30 -90 -283 -126 -356 -39 -77 -124
-218 -181 -301 -182 -262 -482 -514 -768 -646 -49 -23 -101 -48 -115 -55 -58
-30 -274 -96 -390 -119 -207 -41 -582 -42 -773 -1 -275 57 -566 181 -765 324
-62 45 -115 81 -119 81 -6 0 -154 142 -235 225 -21 22 -65 74 -96 115 -31 41
-63 82 -71 90 -71 74 -260 469 -292 608 l-12 52 -424 0 -423 0 0 -27z m4756
-624 c3 -6 1 -16 -4 -21 -8 -8 35 -46 149 -131 129 -97 157 -122 148 -133 -10
-12 -17 -11 -43 9 -17 13 -93 70 -168 127 -76 56 -138 107 -138 113 0 13 30
47 41 47 4 0 11 -5 15 -11z m-3900 -96 l-6 -44 44 30 c24 17 47 38 51 48 6 16
8 16 26 -6 23 -28 24 -41 4 -41 -24 0 -149 -91 -171 -125 -12 -18 -35 -35 -59
-43 -22 -7 -54 -24 -73 -39 -26 -19 -36 -23 -45 -13 -9 9 -3 19 26 44 34 29
37 34 23 45 -9 8 -16 19 -16 26 0 23 24 23 48 2 31 -29 52 -9 29 27 -14 21
-14 26 -2 36 11 9 17 6 30 -14 10 -14 21 -24 25 -21 4 3 18 37 29 75 24 79 47
87 37 13z m164 -85 c0 -4 -9 -8 -21 -8 -20 0 -39 -13 -117 -82 -27 -23 -31
-32 -22 -43 10 -12 26 -2 98 60 83 72 101 82 109 58 2 -6 -69 -72 -159 -146
-129 -108 -165 -133 -176 -124 -12 9 -11 14 5 27 87 70 106 91 95 102 -8 8
-17 7 -36 -5 -19 -13 -26 -14 -35 -3 -8 9 17 35 106 110 110 92 116 96 134 80
11 -9 19 -21 19 -26z m3725 -29 c39 -24 107 -72 153 -107 66 -51 80 -67 71
-78 -9 -11 -26 -2 -92 48 -76 57 -202 161 -237 197 -17 17 -15 16 105 -60z
m-2 -53 c65 -49 116 -90 114 -92 -2 -2 -19 -1 -38 3 -24 5 -58 31 -124 95 -49
49 -85 88 -80 86 6 -2 63 -43 128 -92z m133 67 c29 -22 33 -28 20 -35 -17 -9
-56 6 -56 22 0 4 -3 15 -6 24 -9 23 2 20 42 -11z m-3709 -120 c2 -5 -27 -35
-64 -66 -56 -45 -82 -59 -148 -77 -44 -12 -91 -30 -103 -41 l-24 -19 26 -31
c22 -26 24 -34 14 -46 -10 -13 -18 -9 -50 26 -21 22 -38 45 -38 50 0 23 80 70
156 91 67 19 91 31 145 76 61 52 79 60 86 37z m3391 -113 c5 0 33 -30 62 -67
30 -38 70 -88 89 -113 33 -41 27 -37 -79 44 -63 48 -118 96 -122 105 -3 10
-24 34 -47 53 -37 32 -39 36 -24 51 15 15 20 13 64 -28 27 -25 52 -45 57 -45z
m-3373 0 c-25 -25 -45 -50 -45 -56 0 -8 -118 -104 -213 -173 -10 -7 22 39 73
103 50 64 98 116 105 116 8 0 31 20 52 44 35 41 39 43 56 28 17 -15 15 -18
-28 -62z m3195 -23 c0 -7 58 -70 128 -140 100 -100 130 -125 140 -115 9 9 15
9 24 0 9 -9 2 -22 -32 -57 l-44 -45 -153 152 c-121 121 -150 155 -141 166 9
11 39 -14 153 -128 79 -78 145 -138 148 -133 4 6 -57 72 -134 148 -133 131
-139 139 -123 156 17 19 34 17 34 -4z m-3094 -60 c-27 -35 -237 -203 -221
-176 5 8 42 55 83 106 82 102 128 139 151 118 11 -11 9 -19 -13 -48z m3121
-155 c170 -196 159 -180 138 -189 -12 -4 -24 1 -37 17 -61 75 -79 91 -93 82
-14 -7 -13 -12 4 -34 17 -21 18 -28 8 -37 -10 -8 -37 17 -115 107 l-103 116
23 17 c16 13 25 14 30 6 4 -6 5 -14 3 -18 -6 -9 104 -134 117 -134 28 0 13 28
-56 107 -56 64 -72 88 -63 97 6 6 12 11 13 11 1 0 60 -66 131 -148z m-133 -64
c18 -15 44 -49 56 -75 12 -26 38 -66 57 -90 29 -35 33 -46 23 -58 -10 -12 -15
-10 -36 13 l-23 27 -1 -45 c0 -34 -5 -48 -20 -58 -20 -12 -20 -11 -14 65 6 75
5 80 -25 123 -61 91 -82 107 -165 125 -72 16 -76 18 -57 32 16 11 29 12 58 4
55 -16 59 -14 33 14 -19 20 -21 27 -10 40 11 13 18 8 51 -37 22 -29 54 -64 73
-80z m-2718 47 c19 -15 19 -15 -2 -32 -33 -28 -109 -135 -120 -168 -5 -16 -24
-40 -43 -52 -18 -12 -45 -38 -60 -57 -29 -39 -39 -43 -48 -20 -3 9 6 27 23 45
27 28 27 29 8 44 -10 8 -23 15 -27 15 -4 0 -3 9 3 20 10 19 12 19 36 3 22 -14
27 -14 40 -1 14 13 12 17 -11 32 -21 14 -24 20 -15 31 11 13 15 13 33 0 12 -8
25 -15 29 -15 5 0 8 34 8 75 0 41 4 75 9 75 18 0 33 -31 29 -60 -3 -16 -2 -30
1 -30 10 1 71 86 71 98 0 16 12 15 36 -3z m-536 -62 l0 -46 -25 23 -25 24 22
23 c12 13 23 23 25 23 2 0 3 -21 3 -47z m594 5 c-32 -52 -159 -245 -166 -253
-15 -16 3 67 21 95 8 14 44 58 80 98 61 68 82 87 65 60z m-5 -85 c-43 -79
-154 -258 -173 -280 -7 -8 -16 -9 -25 -4 -11 7 -1 28 44 97 60 94 184 264 191
264 3 0 -14 -35 -37 -77z m164 -18 c-3 -9 -12 -13 -22 -10 -14 4 -37 -30 -111
-165 -51 -93 -96 -170 -99 -170 -36 1 -14 50 156 348 24 42 24 42 53 27 19
-10 27 -20 23 -30z m39 -18 c-2 -10 -36 -91 -77 -180 -44 -97 -70 -166 -64
-171 5 -5 10 -8 12 -5 15 19 146 332 142 339 -8 13 13 22 35 15 23 -7 25 -22
6 -44 -7 -9 -44 -85 -82 -170 -47 -105 -65 -156 -56 -159 13 -4 17 -42 5 -42
-18 0 -113 46 -113 55 0 6 37 94 82 198 60 134 87 186 98 184 8 -1 14 -11 12
-20z m2033 -87 c26 -41 72 -121 102 -177 46 -87 52 -104 38 -109 -9 -4 -17 -5
-19 -3 -8 8 -146 287 -166 334 -26 61 -17 52 45 -45z m18 -123 l46 -88 -30 18
c-17 10 -40 35 -50 56 -20 39 -79 199 -79 214 0 9 38 -58 113 -200z m-150 140
c52 -108 57 -129 57 -220 0 -115 6 -126 56 -108 30 11 38 11 45 0 13 -20 11
-26 -8 -32 -10 -3 -35 -12 -55 -21 l-37 -16 -21 46 c-15 36 -20 68 -20 135 0
78 -4 98 -30 156 -16 36 -30 72 -30 79 0 26 28 14 43 -19z m-1747 -17 l26 -10
-24 -23 c-13 -12 -37 -53 -53 -90 -24 -58 -26 -70 -14 -78 15 -9 19 -1 79 134
18 41 35 67 45 67 8 0 15 -4 15 -10 0 -13 -160 -373 -171 -385 -6 -5 -13 -5
-19 1 -7 7 -1 32 20 78 16 37 27 72 24 77 -8 13 -34 11 -34 -3 0 -25 -17 -41
-32 -32 -12 8 -4 33 46 147 34 75 62 137 63 137 1 0 14 -5 29 -10z m-367 -40
c-23 -41 -33 -48 -44 -30 -13 20 25 62 63 69 2 1 -7 -17 -19 -39z m1948 7 c-6
-18 23 -111 38 -123 7 -5 13 -17 13 -25 -3 -43 2 -49 37 -49 24 0 35 -5 35
-15 0 -9 -9 -15 -25 -15 -27 0 -28 -3 -18 -38 5 -21 10 -23 38 -18 27 5 33 3
38 -13 3 -15 -2 -20 -24 -25 -26 -5 -28 -8 -19 -31 14 -37 13 -45 -8 -45 -13
0 -22 12 -31 40 -6 22 -16 40 -22 40 -15 0 -39 64 -39 103 0 36 -44 175 -60
191 -16 16 -12 26 13 35 25 10 40 5 34 -12z m-1420 -9 c-2 -7 -8 -24 -12 -37
l-7 -24 36 21 c39 23 66 28 66 13 0 -13 -52 -49 -88 -62 -27 -9 -35 -24 -81
-150 -28 -76 -51 -144 -51 -149 0 -12 -27 -13 -34 -1 -3 5 14 62 38 127 61
166 60 164 42 164 -18 0 -20 8 -8 28 5 7 15 10 24 7 10 -4 18 5 27 35 9 30 17
40 32 40 13 0 19 -5 16 -12z m1312 -48 c-23 -41 -39 -51 -39 -26 0 8 -2 21 -5
29 -4 9 5 17 27 24 18 6 34 11 36 12 2 1 -7 -17 -19 -39z m-1163 -12 c-3 -13
-21 -80 -40 -150 -27 -101 -32 -128 -20 -128 8 0 14 -7 14 -15 0 -8 -8 -15
-19 -15 -14 0 -22 -12 -30 -46 -13 -52 -37 -56 -35 -5 2 36 -2 37 -36 11 -26
-21 -60 -27 -60 -10 0 11 83 70 99 70 11 0 20 29 67 203 23 88 32 107 47 107
15 0 18 -5 13 -22z m1087 -80 c57 -163 91 -298 78 -311 -7 -7 -14 -7 -20 -1
-9 10 -63 221 -81 319 -6 33 -14 68 -16 78 -3 9 -3 17 -1 17 2 0 20 -46 40
-102z m-19 -90 c32 -120 32 -127 2 -99 -26 25 -41 87 -50 211 l-6 75 14 -45
c7 -25 25 -89 40 -142z m-111 143 c-7 -27 23 -166 42 -195 10 -15 15 -42 14
-73 -2 -26 1 -67 5 -89 6 -32 4 -43 -7 -47 -20 -7 -27 1 -27 32 0 40 -14 55
-44 47 -22 -5 -26 -3 -26 14 0 13 9 22 25 26 16 4 25 13 25 26 0 18 -4 19 -35
14 -31 -6 -35 -4 -35 14 0 15 6 20 24 20 43 0 38 17 -19 67 -30 26 -55 51 -55
56 0 14 32 7 57 -13 15 -11 28 -18 30 -16 3 2 -3 32 -11 66 -9 34 -16 64 -16
66 0 2 13 4 29 4 24 0 28 -4 24 -19z m-783 -8 c0 -10 -11 -74 -25 -143 -28
-145 -29 -151 -13 -147 6 1 14 -6 16 -15 2 -13 -3 -18 -17 -18 -15 0 -22 -9
-28 -42 -11 -53 -39 -61 -35 -10 2 29 0 32 -16 23 -10 -5 -24 -17 -32 -25 -15
-19 -53 -22 -48 -3 5 12 78 72 97 78 6 2 22 65 36 139 15 74 29 145 32 158 6
26 33 30 33 5z m274 -50 l-6 -38 41 40 c29 28 44 36 52 28 7 -7 -4 -25 -40
-62 -50 -52 -51 -53 -51 -115 0 -35 -3 -104 -6 -154 -6 -75 -10 -92 -23 -92
-14 0 -15 17 -11 150 5 138 4 150 -12 150 -25 0 -23 31 2 37 16 4 20 14 20 49
0 38 3 44 20 44 19 0 20 -4 14 -37z m158 -150 c3 -130 3 -132 -15 -110 -16 19
-18 36 -13 143 5 120 19 193 23 129 1 -16 4 -90 5 -162z m47 -6 c6 -70 11
-153 11 -183 0 -47 -3 -55 -17 -52 -16 3 -18 22 -20 218 -1 230 8 236 26 17z
m1151 157 c0 -4 -5 -24 -12 -46 l-12 -40 -17 34 c-17 32 -17 33 4 45 25 14 37
16 37 7z"/>
</g>
</svg>
